<svg xmlns="http://www.w3.org/2000/svg"><defs><style>.cls-1{fill:none;stroke:#000;stroke-linecap:round;stroke-linejoin:round;stroke-width:4px}</style></defs><symbol id="icon-arrow"><path d="M128 199.5c-3.9 0-7.7-1.5-10.6-4.4L4.4 82.2c-5.9-5.9-5.9-15.4 0-21.3s15.4-5.9 21.3 0L128 163.2 230.3 60.9c5.9-5.9 15.4-5.9 21.3 0s5.9 15.4 0 21.3l-113 112.9c-2.9 3-6.7 4.4-10.6 4.4z"/></symbol><symbol id="icon-basket" viewBox="0 0 48 48"><path d="M37 40H11L5 20h38l-6 20zm-3-20L24 7 14 20" class="cls-1"/></symbol><symbol id="icon-close"><path d="M15.1 256c-3.9 0-7.7-1.5-10.6-4.4-5.9-5.9-5.9-15.4 0-21.3L230.3 4.4c5.9-5.9 15.4-5.9 21.3 0s5.9 15.4 0 21.3L25.7 251.6c-2.9 2.9-6.8 4.4-10.6 4.4z"/><path d="M240.9 256c-3.9 0-7.7-1.5-10.6-4.4L4.4 25.7c-5.9-5.9-5.9-15.4 0-21.3s15.4-5.9 21.3 0l225.9 225.9c5.9 5.9 5.9 15.4 0 21.3-3 2.9-6.8 4.4-10.7 4.4z"/></symbol><symbol id="icon-facebook-logo"><path d="M241.9 0H14.1C6.3 0 0 6.3 0 14.1v227.7c0 7.8 6.3 14.1 14.1 14.1h122.6v-99.1h-33.4v-38.6h33.4V89.7c0-33.1 20.2-51.1 49.7-51.1 14.1 0 26.3 1.1 29.8 1.5v34.6h-20.5c-16 0-19.1 7.6-19.1 18.8v24.7h38.3l-5 38.6h-33.3V256h65.2c7.8 0 14.1-6.3 14.1-14.1V14.1c.1-7.8-6.2-14.1-14-14.1z"/></symbol><symbol id="icon-instagram-logo"><path d="M127.8 179.4c27.7 0 50.2-22.5 50.2-50.2 0-15-6.6-28.5-17.1-37.7-3.7-3.2-7.8-5.9-12.4-8-6.3-2.9-13.3-4.5-20.7-4.5-7.4 0-14.4 1.6-20.7 4.5-4.5 2.1-8.7 4.8-12.4 8-10.5 9.2-17.2 22.7-17.2 37.7.1 27.6 22.7 50.2 50.3 50.2zm.2-87.3c20.5 0 37.1 16.6 37.1 37.1s-16.6 37.1-37.1 37.1-37.1-16.6-37.1-37.1 16.6-37.1 37.1-37.1zm55.7 3.9H256v109.6c0 27.8-22.5 50.4-50.4 50.4H51c-27.8 0-51-22.5-51-50.4V96h72c-5.8 9.7-9.3 21-9.3 33.2 0 36 29.2 65.2 65.2 65.2s65.2-29.2 65.2-65.2c-.1-12.2-3.6-23.5-9.4-33.2zm21.9-96h-131v53.3H64V0H53.3v53.3H42.7V.8C39 1.4 35.4 2.3 32 3.7v49.6H21.3V9.6C8.5 18.7 0 33.5 0 50.4v35h79.7C92.2 71.7 109.6 64 127.8 64c18.4 0 35.7 7.7 48.1 21.3H256v-35C256 22.5 233.5 0 205.6 0zm29.1 56.2c0 4.3-3.6 7.8-7.9 7.8H200c-4.4 0-7.9-3.5-7.9-7.8v-27c0-4.3 3.6-7.8 7.9-7.8h26.8c4.4 0 7.9 3.5 7.9 7.8v27z"/></symbol><symbol id="icon-possible-logo"><path d="M256 156.32H0V99.68h256v56.64zM14.72 143.79h8.75v-9.01h4.32c7.84 0 13.6-3.95 13.6-11.36v-.11c0-6.99-5.17-11.09-13.12-11.09H14.72v31.57zm8.75-15.9v-8.37h4.11c3.15 0 5.07 1.44 5.07 4.16v.11c0 2.51-1.92 4.11-5.01 4.11l-4.17-.01zm37.49 16.54c9.76 0 17.07-7.36 17.07-16.43v-.11c0-9.07-7.2-16.32-16.96-16.32S44 118.93 44 128v.11c0 9.06 7.25 16.32 16.96 16.32zm.11-7.9c-4.8 0-8.05-3.95-8.05-8.53v-.11c0-4.59 3.2-8.43 8-8.43 4.85 0 8.11 4 8.11 8.53v.11c-.01 4.54-3.21 8.43-8.06 8.43zm33.7 7.79c7.68 0 12.8-3.84 12.8-10.29v-.11c0-5.92-4.53-8.27-11.79-9.87-4.37-1.01-5.44-1.6-5.44-3.04v-.11c0-1.12 1.07-2.03 3.15-2.03 2.77 0 5.97 1.07 8.85 3.09l4.37-6.19c-3.41-2.72-7.63-4.21-13.01-4.21-7.57 0-12.21 4.27-12.21 10.13v.11c0 6.51 5.17 8.37 11.89 9.92 4.27 1.01 5.33 1.71 5.33 3.04v.11c0 1.33-1.28 2.19-3.63 2.19-3.63 0-7.15-1.28-10.24-3.79L80 139.09c3.89 3.47 9.17 5.23 14.77 5.23zm29.02 0c7.68 0 12.8-3.84 12.8-10.29v-.11c0-5.92-4.53-8.27-11.79-9.87-4.37-1.01-5.44-1.6-5.44-3.04v-.11c0-1.12 1.01-2.03 3.15-2.03 2.77 0 5.97 1.07 8.85 3.09l4.37-6.19c-3.41-2.72-7.63-4.21-13.01-4.21-7.57 0-12.21 4.27-12.21 10.13v.11c0 6.51 5.17 8.37 11.89 9.92 4.27 1.01 5.33 1.71 5.33 3.04v.11c0 1.33-1.28 2.19-3.63 2.19-3.68 0-7.15-1.28-10.24-3.79l-4.85 5.81c3.84 3.48 9.18 5.24 14.78 5.24zm17.17-.53h8.8v-31.57h-8.8v31.57zm14.61 0h16.32c7.52 0 11.95-3.31 11.95-8.69v-.11c0-4.27-2.45-6.45-6.29-7.73 2.77-1.23 4.85-3.41 4.85-7.04v-.11c0-2.19-.75-3.84-2.03-5.12-1.87-1.87-4.64-2.83-8.64-2.83h-16.21l.05 31.63zm8.54-18.99v-5.55h5.71c2.61 0 3.95 1.01 3.95 2.72v.11c0 1.87-1.49 2.77-4.16 2.77-.01-.05-5.5-.05-5.5-.05zm0 11.95v-5.81h6.67c2.93 0 4.27 1.12 4.27 2.83v.11c0 1.87-1.55 2.88-4.21 2.88-.01-.01-6.73-.01-6.73-.01zm23.73 7.04h24.05v-7.68h-15.31v-23.95h-8.75c.01 0 .01 31.63.01 31.63zm27.84 0h25.65v-7.47h-16.96v-5.01h15.15v-6.93h-15.15v-4.8h16.75v-7.47h-25.44v31.68z"/></symbol><symbol id="icon-twitter-logo"><path d="M80.52 232.04c96.6 0 149.4-80 149.4-149.4 0-2.3 0-4.5-.1-6.8 10.3-7.4 19.2-16.7 26.2-27.2-9.4 4.2-19.5 7-30.2 8.3 10.8-6.5 19.2-16.8 23.1-29.1-10.1 6-21.4 10.4-33.4 12.7-9.6-10.2-23.2-16.6-38.3-16.6-29 0-52.5 23.5-52.5 52.5 0 4.1.5 8.1 1.4 12-43.7-2.2-82.4-23.1-108.3-54.9-4.5 7.8-7.1 16.8-7.1 26.4 0 18.2 9.3 34.3 23.4 43.7-8.6-.3-16.7-2.6-23.8-6.6v.7c0 25.4 18.1 46.7 42.1 51.5-4.4 1.2-9.1 1.8-13.8 1.8-3.4 0-6.7-.3-9.9-.9 6.7 20.9 26.1 36.1 49.1 36.5-18 14.1-40.6 22.5-65.2 22.5-4.2 0-8.4-.2-12.5-.7 23.1 14.9 50.7 23.6 80.4 23.6"/></symbol><symbol id="icon-youtube-logo"><path d="M253.4 76.8s-2.5-17.6-10.2-25.4c-9.7-10.2-20.6-10.2-25.7-10.8-35.7-2.6-89.4-2.6-89.4-2.6h-.1s-53.7 0-89.6 2.6c-5 .6-15.9.6-25.7 10.8C5.1 59.2 2.6 76.8 2.6 76.8S0 97.5 0 118.2v19.4C0 158.3 2.6 179 2.6 179s2.5 17.6 10.2 25.4c9.7 10.2 22.5 9.9 28.2 10.9 20.5 2 87 2.6 87 2.6s53.8-.1 89.6-2.7c5-.6 15.9-.6 25.7-10.8 7.7-7.8 10.2-25.4 10.2-25.4s2.6-20.7 2.6-41.4v-19.4c-.1-20.7-2.7-41.4-2.7-41.4zm-151.8 84.4V89.3l69.2 36.1-69.2 35.8z"/></symbol></svg>